<svg width="731" height="201" viewBox="0 0 731 201" fill="none" xmlns="http://www.w3.org/2000/svg">
<path d="M0.685547 200.287V0.287354H28.3125V200.287H0.685547ZM10.1191 200.287V174.894H54.5918V200.287H10.1191ZM10.1191 25.6806V0.287354H54.5918V25.6806H10.1191Z" fill="white"/>
<path d="M129.467 176.242C115.242 176.242 102.739 173.021 91.9577 166.579C81.3262 160.138 72.9408 150.924 66.8014 138.939C60.8119 126.954 57.8171 112.572 57.8171 95.793C57.8171 79.0139 60.8119 64.6319 66.8014 52.6469C72.9408 40.5121 81.3262 31.2986 91.9577 25.0065C102.739 18.5645 115.242 15.3435 129.467 15.3435C143.693 15.3435 156.196 18.5645 166.977 25.0065C177.759 31.2986 186.144 40.5121 192.134 52.6469C198.273 64.6319 201.343 79.0139 201.343 95.793C201.343 112.572 198.273 126.954 192.134 138.939C186.144 150.924 177.759 160.138 166.977 166.579C156.196 173.021 143.693 176.242 129.467 176.242ZM158.218 186.355L142.495 160.512L116.216 124.108H147.885L164.057 149.726L191.684 186.355H158.218ZM129.467 147.029C141.746 147.029 151.479 142.684 158.667 133.995C165.854 125.306 169.448 112.572 169.448 95.793C169.448 79.0139 165.854 66.2799 158.667 57.5907C151.479 48.9016 141.746 44.557 129.467 44.557C117.339 44.557 107.605 48.9016 100.268 57.5907C93.0808 66.2799 89.487 79.0139 89.487 95.793C89.487 112.572 93.0808 125.306 100.268 133.995C107.605 142.684 117.339 147.029 129.467 147.029Z" fill="white"/>
<path d="M256.107 176.242C244.277 176.242 234.619 172.048 227.132 163.658C219.645 155.269 215.902 143.733 215.902 129.051V54.2199H245.775V122.984C245.775 131.673 247.871 138.34 252.064 142.984C256.406 147.478 261.797 149.726 268.236 149.726C274.824 149.726 280.215 147.478 284.408 142.984C288.6 138.34 290.697 131.673 290.697 122.984H297.21C297.21 134.07 295.488 143.658 292.044 151.748C288.6 159.688 283.809 165.756 277.669 169.95C271.53 174.145 264.343 176.242 256.107 176.242ZM290.697 173.321V54.2199H320.57V173.321H290.697Z" fill="white"/>
<path d="M389.767 176.242C378.836 176.242 369.103 173.621 360.568 168.377C352.033 163.134 345.369 155.868 340.578 146.579C335.936 137.141 333.615 126.205 333.615 113.77C333.615 101.036 336.01 90.0252 340.802 80.7368C345.594 71.2986 352.257 64.0327 360.792 58.939C369.328 53.8454 379.061 51.2986 389.992 51.2986C400.923 51.2986 410.581 53.8454 418.966 58.939C427.352 64.0327 433.865 71.2237 438.507 80.5121C443.299 89.8005 445.695 100.887 445.695 113.77C445.695 115.269 445.62 116.692 445.47 118.04C445.47 119.388 445.47 120.887 445.47 122.535H352.257V101.636H423.458L415.148 113.77C415.148 100.437 412.902 90.9241 408.41 85.2312C404.067 79.3885 397.928 76.4671 389.992 76.4671C382.355 76.4671 376.141 79.3885 371.349 85.2312C366.707 90.9241 364.386 100.437 364.386 113.77C364.386 126.205 366.782 135.418 371.574 141.411C376.365 147.254 382.879 150.175 391.115 150.175C396.655 150.175 401.447 148.902 405.49 146.355C409.533 143.808 412.527 139.838 414.474 134.445L442.55 142.535C439.406 152.722 433.266 160.887 424.132 167.029C415.148 173.171 403.693 176.242 389.767 176.242Z" fill="white"/>
<path d="M445.818 199.164V173.321H548.913V199.164H445.818Z" fill="white"/>
<path d="M542.172 199.164V173.321H645.267V199.164H542.172Z" fill="white"/>
<path d="M703.059 200.287V0.287354H730.686V200.287H703.059ZM676.779 200.287V174.894H721.252V200.287H676.779ZM676.779 25.6806V0.287354H721.252V25.6806H676.779Z" fill="white"/>
</svg>
